<mxfile host="app.diagrams.net" modified="2023-04-26T11:12:11.483Z" agent="Mozilla/5.0 (Windows NT 10.0; Win64; x64) AppleWebKit/537.36 (KHTML, like Gecko) Chrome/112.0.0.0 Safari/537.36 OPR/99.0.0.0 (Edition developer)" version="21.2.2" etag="j-fRdPyYlKVsgGncrs7T" type="github">
  <diagram name="Page-1" id="_8jgKgyxNvDJemFko0Fo">
    <mxGraphModel>
      <root>
        <mxCell id="0" />
        <mxCell id="1" parent="0" />
      </root>
    </mxGraphModel>
  </diagram>
</mxfile>
